<svg width="30" height="30" viewBox="0 0 30 30" fill="none" xmlns="http://www.w3.org/2000/svg">
<rect width="30" height="30" rx="5" fill="white"/>
<g clip-path="url(#clip0_9_433)">
<path d="M21.5958 15.8567C21.2725 15.4484 21.365 15.2667 21.5958 14.9017C21.6 14.8976 24.2692 11.2092 24.5442 9.95841L24.5458 9.95758C24.6825 9.50175 24.5458 9.16675 23.885 9.16675H21.6983C21.1417 9.16675 20.885 9.45425 20.7475 9.77591C20.7475 9.77591 19.6342 12.4409 18.0592 14.1684C17.5508 14.6676 17.3158 14.8276 17.0383 14.8276C16.9017 14.8276 16.6892 14.6676 16.6892 14.2117V9.95758C16.6892 9.41091 16.5333 9.16675 16.0725 9.16675H12.6342C12.285 9.16675 12.0775 9.42175 12.0775 9.65925C12.0775 10.1776 12.865 10.2967 12.9467 11.7551V14.9192C12.9467 15.6126 12.8208 15.7401 12.5417 15.7401C11.7983 15.7401 9.99417 13.0642 8.925 10.0017C8.70917 9.40758 8.49833 9.16758 7.9375 9.16758H5.75C5.12583 9.16758 5 9.45508 5 9.77675C5 10.3451 5.74333 13.1709 8.45667 16.9042C10.265 19.4526 12.8117 20.8334 15.1283 20.8334C16.5208 20.8334 16.6908 20.5267 16.6908 19.9992C16.6908 17.5642 16.565 17.3342 17.2625 17.3342C17.5858 17.3342 18.1425 17.4942 19.4425 18.7234C20.9283 20.1809 21.1725 20.8334 22.0042 20.8334H24.1908C24.8142 20.8334 25.13 20.5267 24.9483 19.9217C24.5325 18.6492 21.7225 16.0317 21.5958 15.8567Z" fill="#17181C"/>
</g>
<defs>
<clipPath id="clip0_9_433">
<rect width="20" height="20" fill="white" transform="translate(5 5)"/>
</clipPath>
</defs>
</svg>
