<svg width="30" height="30" viewBox="0 0 30 30" fill="none" xmlns="http://www.w3.org/2000/svg">
<path d="M28.5 25.5H15.2143C14.3863 25.5 13.7143 26.172 13.7143 27C13.7143 27.828 14.3863 28.5001 15.2143 28.5001H28.5C29.328 28.5001 30 27.828 30 27C30 26.172 29.328 25.5 28.5 25.5ZM1.5 4.5H28.5C29.328 4.5 30 3.82804 30 3C30 2.17196 29.328 1.5 28.5 1.5H1.5C0.67201 1.50005 0 2.17201 0 3.00005C0 3.82804 0.67201 4.5 1.5 4.5ZM28.5 13.5H8.14286C7.31487 13.5 6.64286 14.172 6.64286 15.0001C6.64286 15.8281 7.31487 16.5001 8.14286 16.5001H28.5C29.328 16.5001 30 15.828 30 15.0001C30 14.1721 29.328 13.5 28.5 13.5Z" fill="white"/>
</svg>
