<svg width="12" height="12" viewBox="0 0 12 12" fill="none" xmlns="http://www.w3.org/2000/svg">
<g clip-path="url(#clip0_188_63)">
<path d="M9.33353 5.53176L3.99337 0.191706C3.86986 0.068097 3.70499 0 3.52918 0C3.35338 0 3.1885 0.068097 3.06499 0.191706L2.67173 0.584873C2.41583 0.841066 2.41583 1.25745 2.67173 1.51326L7.15598 5.99751L2.66675 10.4867C2.54324 10.6104 2.47504 10.7751 2.47504 10.9508C2.47504 11.1267 2.54324 11.2915 2.66675 11.4152L3.06002 11.8083C3.18362 11.9319 3.3484 12 3.52421 12C3.70001 12 3.86489 11.9319 3.9884 11.8083L9.33353 6.46336C9.45733 6.33936 9.52533 6.1738 9.52494 5.99781C9.52533 5.82112 9.45733 5.65566 9.33353 5.53176Z" fill="black"/>
</g>
<defs>
<clipPath id="clip0_188_63">
<rect width="12" height="12" fill="white"/>
</clipPath>
</defs>
</svg>
